<?xml version="1.0" encoding="utf-8"?>
<!-- Generator: Adobe Illustrator 28.4.1, SVG Export Plug-In . SVG Version: 6.00 Build 0)  -->
<svg version="1.2" baseProfile="tiny" id="Layer_1" xmlns="http://www.w3.org/2000/svg" xmlns:xlink="http://www.w3.org/1999/xlink"
	 x="0px" y="0px" viewBox="0 0 512 512" overflow="visible" xml:space="preserve">
<g>
	<path fill="#010101" d="M462.4,512H49.6C22.4,512,0,489.6,0,462.4V49.6C0,22.4,22.4,0,49.6,0h411.2C489.6,0,512,22.4,512,49.6
		v411.2C512,489.6,489.6,512,462.4,512z"/>
</g>
<g>
	<path fill="#FFFFFF" d="M163.2,358.4V153.6c0-1.6,0-1.6,1.6-1.6H216c0,0,1.6,0,1.6,1.6l27.2,89.6c3.2,9.6,4.8,20.8,8,32
		c1.6,11.2,3.2,20.8,3.2,27.2h3.2c0-8,1.6-17.6,3.2-28.8c1.6-11.2,4.8-22.4,8-32l27.2-89.6c0,0,0-1.6,1.6-1.6h49.6
		c1.6,0,1.6,0,1.6,1.6v204.8c0,1.6,0,1.6-1.6,1.6h-38.4c-1.6,0-1.6,0-1.6-1.6V296c0-32,1.6-59.2,4.8-80H312l-40,142.4
		c0,0,0,1.6-1.6,1.6h-28.8c0,0-1.6,0-1.6-1.6l-38.4-140.8H200c3.2,20.8,4.8,48,4.8,80v60.8c0,1.6,0,1.6-1.6,1.6L163.2,358.4
		C163.2,360,163.2,360,163.2,358.4z"/>
</g>
</svg>
