<?xml version="1.0" encoding="utf-8"?>
<!-- Generator: Adobe Illustrator 28.4.1, SVG Export Plug-In . SVG Version: 6.00 Build 0)  -->
<svg version="1.1" id="Layer_1" xmlns="http://www.w3.org/2000/svg" xmlns:xlink="http://www.w3.org/1999/xlink" x="0px" y="0px"
	 viewBox="0 0 32 32" style="enable-background:new 0 0 32 32;" xml:space="preserve">
<g>
	<path d="M28.9,32H3.1C1.4,32,0,30.6,0,28.9V3.1C0,1.4,1.4,0,3.1,0h25.7C30.6,0,32,1.4,32,3.1v25.7C32,30.6,30.6,32,28.9,32z
		 M3.1,1.6c-0.8,0-1.5,0.7-1.5,1.5v25.7c0,0.8,0.7,1.5,1.5,1.5h25.7c0.8,0,1.5-0.7,1.5-1.5V3.1c0-0.8-0.7-1.5-1.5-1.5H3.1z"/>
</g>
<g>
	<path d="M10.2,22.4V9.6c0-0.1,0-0.1,0.1-0.1h3.2c0,0,0.1,0,0.1,0.1l1.7,5.6c0.2,0.6,0.3,1.3,0.5,2c0.1,0.7,0.2,1.3,0.2,1.7h0.2
		c0-0.5,0.1-1.1,0.2-1.8c0.1-0.7,0.3-1.4,0.5-2l1.7-5.6c0,0,0-0.1,0.1-0.1h3.1c0.1,0,0.1,0,0.1,0.1v12.8c0,0.1,0,0.1-0.1,0.1h-2.4
		c-0.1,0-0.1,0-0.1-0.1v-3.8c0-2,0.1-3.7,0.3-5h-0.1L17,22.4c0,0,0,0.1-0.1,0.1h-1.8c0,0-0.1,0-0.1-0.1l-2.4-8.8h-0.1
		c0.2,1.3,0.3,3,0.3,5v3.8c0,0.1,0,0.1-0.1,0.1L10.2,22.4C10.2,22.5,10.2,22.5,10.2,22.4z"/>
</g>
</svg>
