<?xml version="1.0" encoding="utf-8"?>
<!-- Generator: Adobe Illustrator 28.4.1, SVG Export Plug-In . SVG Version: 6.00 Build 0)  -->
<svg version="1.2" baseProfile="tiny" id="Layer_1" xmlns="http://www.w3.org/2000/svg" xmlns:xlink="http://www.w3.org/1999/xlink"
	 x="0px" y="0px" viewBox="0 0 512 512" overflow="visible" xml:space="preserve">
<g>
	<path fill="#FFFFFF" d="M462.4,511.9H49.6c-27.2,0-49.6-22.4-49.6-49.6V49.6C0.1,22.4,22.4,0,49.6,0h411.2
		C489.6,0,512,22.4,512,49.6v411.2C512,489.6,489.6,511.9,462.4,511.9z M49.6,25.6c-12.8,0-24,11.2-24,24v411.2
		c0,12.8,11.2,24,24,24h411.2c12.8,0,24-11.2,24-24V49.6c0-12.8-11.2-24-24-24C460.8,25.6,49.6,25.6,49.6,25.6z"/>
</g>
<g>
	<path fill="#FFFFFF" d="M162.4,359.2V154.4c0-1.6,0-1.6,1.6-1.6h51.2c0,0,1.6,0,1.6,1.6L244,244c3.2,9.6,4.8,20.8,8,32
		c1.6,11.2,3.2,20.8,3.2,27.2h3.2c0-8,1.6-17.6,3.2-28.8c1.6-11.2,4.8-22.4,8-32l27.2-89.6c0,0,0-1.6,1.6-1.6H348
		c1.6,0,1.6,0,1.6,1.6v204.8c0,1.6,0,1.6-1.6,1.6h-38.4c-1.6,0-1.6,0-1.6-1.6v-60.8c0-32,1.6-59.2,4.8-80h-1.6l-40,142.4
		c0,0,0,1.6-1.6,1.6h-28.8c0,0-1.6,0-1.6-1.6l-38.4-140.8h-1.6c3.2,20.8,4.8,48,4.8,80v60.8c0,1.6,0,1.6-1.6,1.6L162.4,359.2
		C162.4,360.8,162.4,360.8,162.4,359.2z"/>
</g>
</svg>
