<?xml version="1.0" encoding="utf-8"?>
<!-- Generator: Adobe Illustrator 28.4.1, SVG Export Plug-In . SVG Version: 6.00 Build 0)  -->
<svg version="1.1" id="Layer_1" xmlns="http://www.w3.org/2000/svg" xmlns:xlink="http://www.w3.org/1999/xlink" x="0px" y="0px"
	 viewBox="0 0 526.3 533.3" style="enable-background:new 0 0 526.3 533.3;" xml:space="preserve">
<path d="M491.6,218.3c12.1-36.3,7.9-76.1-11.4-109.1C451,58.5,392.5,32.4,335.4,44.7C310,16.1,273.5-0.2,235.2,0
	C176.8-0.1,125,37.5,107,93c-37.5,7.7-69.9,31.2-88.9,64.5C-11.2,208-4.5,271.7,34.7,315.1c-12.1,36.3-7.9,76.1,11.4,109.1
	c29.1,50.7,87.6,76.7,144.7,64.5c25.4,28.6,61.9,44.9,100.2,44.7c58.4,0.1,110.3-37.5,128.2-93.1c37.5-7.7,69.9-31.2,88.9-64.5
	C537.4,325.2,530.7,261.6,491.6,218.3L491.6,218.3z M291.1,498.5c-23.4,0-46-8.2-64-23.1c0.8-0.4,2.2-1.2,3.2-1.8l106.2-61.3
	c5.4-3.1,8.8-8.9,8.7-15.1V247.4l44.9,25.9c0.5,0.2,0.8,0.7,0.9,1.2v124C390.9,453.7,346.2,498.4,291.1,498.5L291.1,498.5z
	 M76.4,406.8c-11.7-20.2-15.9-43.9-11.9-67c0.8,0.5,2.2,1.3,3.2,1.9L173.8,403c5.4,3.2,12.1,3.2,17.5,0l129.7-74.9V380
	c0,0.5-0.2,1.1-0.6,1.4l-107.4,62C165.1,470.9,104,454.5,76.4,406.8L76.4,406.8z M48.4,174.9c11.7-20.3,30.1-35.8,52-43.8
	c0,0.9,0,2.5,0,3.7v122.7c0,6.2,3.3,12,8.7,15.1l129.7,74.9l-44.9,25.9c-0.5,0.3-1,0.4-1.5,0.1L85,311.4
	C37.3,283.8,20.9,222.8,48.4,174.9L48.4,174.9z M417.2,260.8l-129.7-74.9l44.9-25.9c0.5-0.3,1-0.4,1.5-0.1l107.4,62
	c47.8,27.6,64.2,88.8,36.6,136.6c-11.7,20.2-30.1,35.7-52,43.8V275.9C425.9,269.6,422.6,263.9,417.2,260.8L417.2,260.8z
	 M461.8,193.5c-0.8-0.5-2.2-1.3-3.2-1.9l-106.2-61.3c-5.4-3.2-12.1-3.2-17.5,0l-129.7,74.9v-51.8c0-0.5,0.2-1.1,0.6-1.4L313.4,90
	c47.8-27.6,109-11.2,136.5,36.7C461.5,146.9,465.8,170.5,461.8,193.5L461.8,193.5z M181,285.9L136.1,260c-0.5-0.2-0.8-0.7-0.9-1.2
	v-124c0-55.2,44.8-99.9,100-99.9c23.4,0,46,8.2,63.9,23.1c-0.8,0.4-2.2,1.2-3.2,1.8l-106.2,61.3c-5.4,3.1-8.8,8.9-8.7,15.1
	L181,285.9L181,285.9z M205.4,233.3l57.8-33.4l57.8,33.3V300l-57.8,33.3L205.4,300L205.4,233.3z"/>
</svg>
