<?xml version="1.0" encoding="utf-8"?>
<!-- Generator: Adobe Illustrator 28.4.1, SVG Export Plug-In . SVG Version: 6.00 Build 0)  -->
<svg version="1.1" id="Layer_1" xmlns="http://www.w3.org/2000/svg" xmlns:xlink="http://www.w3.org/1999/xlink" x="0px" y="0px"
	 viewBox="0 0 334.5 268.6" style="enable-background:new 0 0 334.5 268.6;" xml:space="preserve">
<style type="text/css">
	.st0{fill:#FFFFFF;}
</style>
<g>
	<path class="st0" d="M128.9,205.4c0-16.5,0.5-33.1-0.1-49.6c-0.8-23.3,17.4-37.2,36.8-38.3c20.8-1.1,39.5,14.6,41.2,35.5
		c1.1,13.5,0.6,27.2,0.7,40.8c0.1,21.9,0,43.8,0,65.7c0,4.4,0.5,8.6-6.2,8.5c-6.8-0.1-4.4-5-4.4-8c-0.2-32.8-0.1-65.7-0.1-98.5
		c0-9.7-2.3-18.4-9.2-25.6c-8.8-9.2-19.2-11.2-30.8-7.3c-11.3,3.8-17.6,12.2-18,24c-0.5,17.9-0.2,35.8-0.2,53.6
		c0,18.1,0,36.3,0,54.4c0,3.4,0.6,7.2-4.9,7.3c-5.5,0-4.8-3.9-4.8-7.3C128.9,242.3,128.9,223.9,128.9,205.4z"/>
	<path class="st0" d="M334.4,149.8c0,35.8,0,71.6,0,107.3c0,1.9-0.1,3.8,0,5.6c0.4,4.2-1.8,5.6-5.6,5.8c-4.4,0.3-4.6-2.5-4.6-5.7
		c0-12,0-24,0-36c0-57.7,0.1-115.4,0.1-173.1c0-5.3,0-10.7-0.7-16C321.3,20.1,309.3,9,291.3,8.5c-13.1-0.4-26.2,0.2-39.3,0.2
		c-3,0-7.2,1.1-7.2-3.9c0.1-4.7,4.1-4.2,7.2-4.2c13.4-0.2,26.7-0.6,40.1-0.3c24.5,0.4,41.9,17.7,42.1,42.2
		C334.5,78.2,334.3,114,334.4,149.8C334.3,149.8,334.4,149.8,334.4,149.8z"/>
	<path class="st0" d="M0.2,150.2c0-35.2-0.1-70.5,0-105.7C0.4,15.4,15,0.7,44.1,0.1c12.5-0.3,25.1,0,37.6,0.1c2.6,0,5.6-0.3,5.8,3.7
		c0.2,4.4-3,4.6-5.9,4.6c-12,0.1-24,0-36,0.1C22.4,8.9,10.4,19.5,9.9,42.5C9.2,77.7,9.8,113,9.7,148.2c0,36.3-0.1,72.6-0.2,108.9
		c0,2.1-0.1,4.3-0.2,6.4c-0.2,3.9-2.9,4.8-6.1,4.8c-3.7,0-3.2-2.9-3.2-5.2c0-16.5,0-33.1,0-49.6c0-21.1,0-42.2,0-63.2
		C0.1,150.2,0.2,150.2,0.2,150.2z"/>
	<path class="st0" d="M65.5,183c0-25.4-0.5-50.8,0.1-76.1c0.6-24.6,14.2-40.1,37.6-45.1c22.1-4.7,46.5,9.8,53.1,31.4
		c0.9,3,1.7,5.8-2.8,6.6c-4.1,0.7-7.1,1.7-9-4.2c-6.9-21-23.2-29.4-44.6-23.7C86.3,75.7,79.6,86,76.3,98.8
		c-1.3,5.1-1.5,10.6-1.5,15.9c-0.2,47-0.3,94-0.4,141c0,2.1-0.2,4.3,0,6.4c0.3,3.9-1.3,6.2-5.2,6.5c-5,0.3-3.7-3.7-3.7-6.2
		c-0.1-26.4-0.1-52.9-0.1-79.3C65.4,183,65.5,183,65.5,183z"/>
	<path class="st0" d="M258.6,185.9c0-21.9,0.1-43.8,0-65.6c-0.1-9.3-0.2-18.7-4-27.5c-5.7-13.1-15.4-21.2-29.8-22
		c-14.7-0.9-25.9,5-32.3,18.8c-1.2,2.7-2.4,5.3-3.7,8c-2.4,4.9-6.6,2.9-9.7,1.6c-4.1-1.7-0.9-4.4,0.1-6.5c6.9-14.1,15.9-26,32.2-30
		c25.1-6.2,50,9.6,55.4,35.4c1.3,6,1.8,12.1,1.8,18.3c0.1,47.8,0.2,95.5,0.3,143.3c0,1.1-0.1,2.1,0,3.2c0.4,5-3.5,5.6-6.9,5.9
		c-4.5,0.3-3-3.6-3-5.8c-0.1-25.6-0.1-51.2-0.1-76.8C258.7,185.9,258.7,185.9,258.6,185.9z"/>
	<path class="st0" d="M207.3,0.4c5.1,0,10.1,0,15.2,0c2.3,0,5.2-0.7,5.2,3.1c0,2.7-1.1,4.9-4.1,4.9c-11.5,0.1-22.9,0.1-34.3,0
		c-2.1,0-3.4-1.1-3-3.6c0.4-2.6,2-3.7,4.4-3.7c5.6-0.1,11.2,0,16.8,0C207.3,0.9,207.3,0.6,207.3,0.4z"/>
	<path class="st0" d="M140.1,8.7c-4.5,0-9.1,0-13.6,0c-2.7,0-5.6,0.1-5.4-4c0.2-3.8,2.8-4,5.6-4.1c9.6-0.1,19.2-0.3,28.8-0.3
		c2,0,5.4-1.3,5.4,2.6c0,3.4-2.1,5.4-5.6,5.4c-5.1,0-10.1,0-15.2,0C140.1,8.4,140.1,8.6,140.1,8.7z"/>
</g>
</svg>
